<?xml version="1.0" standalone="no"?><!DOCTYPE svg PUBLIC "-//W3C//DTD SVG 1.1//EN" "http://www.w3.org/Graphics/SVG/1.1/DTD/svg11.dtd"><svg t="1761019712192" class="icon" viewBox="0 0 1024 1024" version="1.1" xmlns="http://www.w3.org/2000/svg" p-id="6862" xmlns:xlink="http://www.w3.org/1999/xlink" width="200" height="200"><path d="M921.6 0H102.4a102.4 102.4 0 0 0-102.4 102.4v819.2a109.568 109.568 0 0 0 2.048 20.736 108.032 108.032 0 0 0 15.36 36.608 119.04 119.04 0 0 0 12.544 15.104 105.728 105.728 0 0 0 32.512 22.016A103.936 103.936 0 0 0 102.4 1024h819.2a106.752 106.752 0 0 0 18.176-1.792 123.136 123.136 0 0 0 16.64-4.608v2.048A102.4 102.4 0 0 0 1024 923.392V102.4a102.4 102.4 0 0 0-102.4-102.4zM102.4 934.4a12.8 12.8 0 0 1-12.8-12.8V570.112l188.16-188.16a12.8 12.8 0 0 1 18.176 0L848.384 934.4z m832-40.704l-281.6-281.6L751.36 512a12.032 12.032 0 0 1 8.96-3.584 12.288 12.288 0 0 1 8.96 3.584l165.12 165.12z m-102.4-445.184a102.4 102.4 0 0 0-144.896 0L588.8 547.84l-230.4-230.4a102.4 102.4 0 0 0-144.64 0L89.6 443.392V102.4a12.8 12.8 0 0 1 12.8-12.8h819.2a12.8 12.8 0 0 1 12.8 12.8v447.744z" p-id="6863" fill="#ffffff"></path></svg>