<?xml version="1.0" standalone="no"?><!DOCTYPE svg PUBLIC "-//W3C//DTD SVG 1.1//EN" "http://www.w3.org/Graphics/SVG/1.1/DTD/svg11.dtd"><svg t="1760562389103" class="icon" viewBox="0 0 1024 1024" version="1.1" xmlns="http://www.w3.org/2000/svg" p-id="31638" xmlns:xlink="http://www.w3.org/1999/xlink" width="200" height="200"><path d="M516.46144262 56.66066602c243.43230006 0 440.7674051 197.33510503 440.76740509 440.7674051S759.89374266 938.19547419 516.46144262 938.19547419 75.69403952 740.86037119 75.69403952 497.42807112s197.33510503-440.7674051 440.7674031-440.7674051z" fill="#13D1BE" p-id="31639"></path><path d="M298.98103401 394.08858649c17.4642011 112.60632543-80.0923959 342.11466401-74.71537652 345.34383852 11.25766944 6.17690474 49.444871 47.29702612 114.75417032-36.57261633 31.7140421-40.57204935 17.19757129 72.83416147 99.40818714 24.18917791 171.19064791-101.05240131 38.1575767-529.7029978-122.85672941-335.1230594l-16.59025153 2.1626593z" fill="#59595C" p-id="31640"></path><path d="M444.10128897 413.70063243v224.41276145c0 41.92000881 38.45383138 60.99879513 76.90766073 59.93227994v-284.34504139h-76.90766073z" fill="#FFD8AA" p-id="31641"></path><path d="M520.96451036 631.37360466v-433.74617162c-327.36119226 0.53325758-194.84656619 432.67965639 0 433.74617162z" fill="#FFE6C8" p-id="31642"></path><path d="M309.4536305 443.26682767c29.83282507 90.29836257 52.40741567-38.45383138 51.32608809-77.94455101-1.08132965-39.49072172 33.06199958-126.04146462 155.07440222-129.27063912 1.61458726 0 3.2291745 0.2666298 5.09557714 0.26662777v-131.68511177c-167.14677356 2.69591488-257.17850836 201.02347295-211.49606745 338.63367413z" fill="#59595C" p-id="31643"></path><path d="M515.85412081 178.26720246c-94.87549455 0-170.12413069 89.49847516-184.35915726 122.85672942-14.24984103 33.35825427-17.73083089 39.50553414-15.00528912 75.51526595 1.61458726 22.57459063 6.99160459 164.74711132 18.81215851 166.08025635 6.99160459 0.7998874 22.30796084-128.73738151 24.18917792-143.23903791 6.99160459-48.11172597 37.8909469-106.96267829 84.40290007-138.94334614 21.75989082-15.00528912-75.02644564 83.32157041-47.56365599 83.85482798 11.82055392 0.2666298 76.3299658-44.08266609 124.42687735-72.55272125v-93.2609073c-1.40720919-0.02962485-3.00698196-0.31106711-4.90301148-0.3110671z" fill="#59595C" p-id="31644"></path><path d="M446.21950692 631.38841908l-57.20673811 73.10078928 35.47647427 66.65725673 94.59405225-95.14212432-72.86378841-44.61592169z" fill="#FFFFFF" p-id="31645"></path><path d="M518.2685955 671.69383863c-54.28863276-0.7998874-107.49593588 12.63525378-196.99441108 70.68631866-30.36608266 19.61204595-56.96973522 67.19051434-76.06333598 111.79162356a448.28041818 448.28041818 0 0 0 275.72403708 95.14212435v-277.59043969l-2.66629002-0.02962688z" fill="#FFFFFF" p-id="31646"></path><path d="M726.28367306 391.92592719c-160.96986677-194.5799384-294.01775042 234.08547052-122.8567294 335.1230594 82.24024075 48.64498359 67.72377194-64.76122724 99.4081892-24.18917791 65.30929927 83.85482799 103.46687397 42.7198942 114.75416826 36.57261633 5.37701937-3.2291745-92.17957963-232.73751308-74.71537651-345.34383852l-16.59025155-2.1626593z" fill="#59595C" p-id="31647"></path><path d="M520.96451036 413.70063243v284.33022893c38.45383138 1.08132965 76.9076607-18.01227113 76.90766275-59.93227989v-224.41276349h-76.90766275z" fill="#FFD8AA" p-id="31648"></path><path d="M520.96451036 197.62743304v433.76098604c194.83175376-1.08132965 327.28712809-433.22772846 0-433.76098604z" fill="#FFE6C8" p-id="31649"></path><path d="M520.96451036 104.63315354v131.68511177c1.88121503 0 3.49580226-0.2666298 5.09557713-0.26662777 122.01240469 3.2291745 156.14091948 89.76510498 155.07440429 129.27063912s21.50807545 168.22810322 51.32608806 77.94455101c45.69725334-137.61020317-44.33448144-335.93775924-211.49606948-338.63367413z" fill="#59595C" p-id="31650"></path><path d="M521.23114019 178.5486447v93.26090729c48.11172597 28.48486761 112.60632543 72.83416147 124.42687937 72.55272128 27.41835241-0.53325758-69.33835922-98.90455644-47.56365596-83.85483006 46.49713872 31.98066991 77.39648099 90.83162221 84.40289808 138.94334821 1.88121503 14.51646884 17.19757129 144.05373775 24.18917785 143.23903792 11.82055392-1.34795745 17.19757129-143.49085326 18.81215852-166.08025838 2.69591488-36.00973182-0.7998874-42.20144901-15.00528707-75.51526391s-89.49847516-122.85672942-184.35915931-122.85672945c-1.95527923 0.02962485-3.55505403 0.31106711-4.90301148 0.3110671z" fill="#59595C" p-id="31651"></path><path d="M522.84572744 676.00434077l94.59405229 95.12731194 35.47647426-66.65725676-57.2067402-73.10079129-72.86378635 44.63073611z" fill="#FFFFFF" p-id="31652"></path><path d="M520.96451036 671.69383863v277.5904417a448.28041818 448.28041818 0 0 0 275.72403915-95.14212432c-19.07878836-44.6159237-45.69725334-92.17957963-76.06333602-111.79162564-89.49847516-58.05106491-142.7057803-71.48620404-196.99441108-70.68631661l-2.66629205 0.02962487z" fill="#FFFFFF" p-id="31653"></path><path d="M514.06178239 280.28242997h15.2126672v348.05456786h-15.2126672z" fill="#FFE6C8" p-id="31654"></path><path d="M514.06178239 111.47663187h15.2126672v160.49586092h-15.2126672z" fill="#59595C" p-id="31655"></path><path d="M514.06178239 683.54401743h15.2126672v244.89876098h-15.2126672z" fill="#FFFFFF" p-id="31656"></path><path d="M513.97586907 636.68693039l15.2097039-0.26662982 0.51103794 29.20476628-15.20970389 0.26662775z" fill="#FFD8AA" p-id="31657"></path></svg>