<svg t="1760651792231" class="icon" viewBox="0 0 1024 1024" version="1.1" xmlns="http://www.w3.org/2000/svg" p-id="32632" width="200" height="200">
  <!-- 脚掌外轮廓 - 只保留外侧虚线 -->
  <path
    d="M670.415199 300.650494c-37.648847-36.937954-82.577228-61.961357-131.344427-80.757344-40.463979-15.582755-82.03695-21.724863-125.060141-14.615942-53.515959 8.758191-95.202672 34.520921-121.306631 85.449232-32.274502 62.92817-40.06588 126.737847-15.611191 193.504834 7.023614 19.222523 13.535386 38.700967 19.250958 58.378461 12.45483 42.937884 5.345909 82.918457-19.563751 120.140768-16.20834 24.113461-35.629913 44.985253-57.013547 64.207776a192.48115 192.48115 0 0 0-37.56354 46.094245 188.670768 188.670768 0 0 0-24.824353 71.544182c-4.379095 33.383494-0.938378 65.601125 13.307901 95.913565 18.710681 39.753087 49.677141 64.975539 91.278548 75.866406 55.847685 14.615942 109.079286 7.933556 158.528942-25.051838 28.577863-19.051909 54.141544-41.658278 77.800033-66.539502 62.92817-66.198274 118.519934-138.396477 168.936403-214.774726 30.426183-46.037373 54.482772-95.458593 69.326199-149.230474 2.331726-11.374274 5.004681-22.720112 6.824564-34.151257 14.075664-88.662465-9.980925-164.187643-72.965967-225.978386z m26.786415 253.561c-15.781805 62.586942-47.032622 114.737988-74.757415 156.680623-45.923631 69.468378-74.9849 108.851801-132.225933 169.163888-12.767622 13.450079-105.866054 134.187996-225.722465 98.131548-53.97093-16.265212-82.605664-103.591199-61.904486-152.443706 34.719971-81.866336 73.108145-96.084179 100.946681-132.90839 20.104029-26.615801 39.895266-77.03227 36.76734-125.85634-3.668203-57.72444-59.544324-146.159419-26.729544-225.267494 18.739116-45.184303 43.904697-90.652963 110.302021-95.401722 96.567585-6.995178 187.277419 52.207917 221.599291 85.875767 57.32634 56.245784 76.264506 124.718913 51.72451 222.025826z"
    fill="none"
    stroke="#00BC7D"
    stroke-width="4"
    stroke-dasharray="15,8"
    stroke-linejoin="round"
    stroke-linecap="round"
    p-id="32633"></path>
</svg>
