<?xml version="1.0" standalone="no"?><!DOCTYPE svg PUBLIC "-//W3C//DTD SVG 1.1//EN" "http://www.w3.org/Graphics/SVG/1.1/DTD/svg11.dtd"><svg t="1760562354154" class="icon" viewBox="0 0 1024 1024" version="1.1" xmlns="http://www.w3.org/2000/svg" p-id="26482" xmlns:xlink="http://www.w3.org/1999/xlink" width="200" height="200"><path d="M513.90840763 502.998121m-428.36259898 0a428.36259901 428.36259901 0 1 0 856.72519801 0 428.36259901 428.36259901 0 1 0-856.72519801 0Z" fill="#13D1BE" p-id="26483"></path><path d="M596.04155625 585.18429388v-28.89823674h-156.4363774v106.40207045l156.4363774-77.50383371z" fill="#FCC57F" p-id="26484"></path><path d="M439.60517885 443.28540867v226.26641838c0 42.61090667 39.03176725 61.58181847 78.38757184 60.47714579v-286.74356417h-78.38757184z" fill="#FFD8AA" p-id="26485"></path><path d="M517.68344234 225.2672128c-331.28396578 0-196.86739671 437.40618583 0 437.40618584v-437.40618584z" fill="#FFE6C8" p-id="26486"></path><path d="M512.18953699 206.03117957c-95.69411015 0-171.56302833 90.17074686-185.85012805 123.70860878-14.30182867 33.81771232-17.86623914 39.8713185-15.12665094 76.16349755 2.47446676 36.29217908 37.94182356 62.12679031 43.43572893 22.78571471a218.56022192 218.56022192 0 0 1 84.95669192-140.20505383c11.26766112-7.70325068 44.54040159-42.06593483 78.38757184-24.18496674v-58.01740802c-1.91476594-0.22093454-3.85898981-0.30930834-5.8032137-0.25039245z" fill="#475A92" p-id="26487"></path><path d="M570.206945 276.98062218c52.7886241 22.2702008 101.45313695 73.40918041 122.05896428 146.25865997 8.20403561 28.58892839 23.37487345 12.37233377 29.97345148-11.00253968a105.79523694 105.79523694 0 0 0-10.72268929-77.25344123c2.19461635 4.40396166-114.37044258-122.61866509-193.55337872-128.65754229-0.2798504-0.02945793 33.81771232 62.96634153 52.24365225 70.65486323z" fill="#262261" p-id="26488"></path><path d="M302.96453547 394.10538192c23.9198453 92.96925093 53.87856779 40.41629033 52.50877371 0.27985039-1.10467265-39.8713185 33.27274047-127.28774819 156.4363774-130.58703718 1.92949491 0 3.84426085 0.2798504 5.77375576 0.27985041v-133.10569086c-168.7939822 2.78377509-238.35890176 171.03278546-214.71890686 263.13302724z" fill="#475A92" p-id="26489"></path><path d="M299.12027461 375.97402134c-12.09248336 2.73958819-16.77629543 27.48425574-10.72268927 55.26309084 6.31872761 28.04395655 21.16552814 48.38466243 32.99289007 45.63034529 12.09248336-2.73958819 16.77629543-27.48425574 10.44283888-55.52821229-6.03887719-27.77883513-20.60582732-48.119541-32.71303968-45.36522384" fill="#FFE6C8" p-id="26490"></path><path d="M507.55433051 443.28540867v286.74356417c39.31161767 1.10467265 78.38757185-17.86623914 78.38757183-60.47714579v-226.26641838h-78.38757183z" fill="#FFD8AA" p-id="26491"></path><path d="M507.83418093 225.2672128v437.47983068c196.86739671 0 331.28396578-437.40618583 0-437.40618585v-0.07364483z" fill="#FFE6C8" p-id="26492"></path><path d="M507.55433051 206.34048791v58.01740802c33.81771232-17.86623914 67.07572382 16.49644503 78.38757183 24.18496676a218.59557143 218.59557143 0 0 1 84.95669194 140.20505378c5.46444741 39.31161767 40.96126218 13.47700643 43.43572894-22.78571468 2.73958819-36.29217908-0.82482225-42.33105627-15.12665094-76.16349757-14.30182867-33.53786192-90.17074686-123.70860878-185.85012807-123.70860876-1.92949491-0.04418691-3.87371878 0.02945793-5.8032137 0.25039245z" fill="#475A92" p-id="26493"></path><path d="M507.83418093 130.97235468v133.06150393c1.92949491 0 3.84426085-0.2798504 5.77375576-0.27985038 123.16363693 3.29928901 157.5263211 90.71571871 156.43637739 130.58703718-1.36979409 40.10698199 28.58892839 92.64521362 52.50877372-0.27985041 23.63999488-92.05605486-45.88073776-260.30506525-214.71890687-263.08884032z" fill="#475A92" p-id="26494"></path><path d="M726.39734863 375.97402134c-12.09248336-2.73958819-26.67416246 17.6011177-32.71303966 45.36522384-6.31872761 28.04395655-1.6496445 52.7886241 10.44283888 55.52821229 11.84209089 2.73958819 26.67416246-17.6011177 32.99289005-45.63034529 6.03887719-27.77883513 1.36979409-52.52350266-10.72268927-55.26309084" fill="#FFE6C8" p-id="26495"></path><path d="M514.38415332 703.160388c-54.68866109-0.82482225-108.31683641 12.65218418-198.50231221 71.21456406-23.9198453 15.39177237-40.10698199 37.36739379-57.41352031 72.30450773 66.53075198 43.43572893 149.27809858 80.27287985 238.90387361 80.27287985 6.87842843 0 13.74212788 0.2798504 20.62055628 0v-223.55628813c-1.20777545 0.07364484-2.41555087 0-3.60859736-0.23566351z" fill="#EDEDED" p-id="26496"></path><path d="M445.11381316 708.34498502l53.08320349 127.28774819-18.69106138 91.27541951c12.91730562 0.54497185 18.42593995 0.82482225 35.18750642 0.27985042h3.5791394l-0.2798504-219.38798998c-23.66945283-0.04418691-47.04432627-0.04418691-72.87893753 0.54497186z" fill="#5BC0A0" p-id="26497"></path><path d="M441.81452416 662.67045283l-57.7375576 73.67430184 35.73247824 67.07572382 95.39953077-95.69411016-73.39445141-45.0559155z" fill="#FFFFFF" p-id="26498"></path><path d="M517.97065724 703.39605151v223.51210121c6.87842843 0.2798504 13.74212788 0 20.62055629 0 89.62577503 0 172.37312161-36.83715091 238.90387359-80.27287982-17.3212673-34.92238497-33.53786192-56.91273537-57.41352029-72.30450776-90.17074686-58.56237988-143.78419323-71.99519939-198.50231224-71.21456403-1.19304647 0.25039246-2.40082192 0.33876629-3.60859735 0.2798504z" fill="#EDEDED" p-id="26499"></path><path d="M517.97065724 707.75582627l-0.27985041 219.38798995h3.5791394c16.77629543 0.54497185 22.2702008 0.2798504 35.18750642-0.2798504l-18.69106139-91.27541952 53.06847452-127.28774818c-25.86406917-0.54497185-49.22421365-0.54497185-72.86420854-0.54497185z" fill="#5BC0A0" p-id="26500"></path><path d="M520.71024543 707.80001316l95.39953077 95.69411017 35.73247827-67.07572382-57.73755763-73.67430185-73.39445141 45.0559155z" fill="#FFFFFF" p-id="26501"></path><path d="M425.31807912 173.63039405l22.27020081-12.65218418s17.3212673-40.96126218-22.2702008-41.78608443c0 0 81.11243106-1.36979409 72.86420855 27.21913431a41.92306384 41.92306384 0 0 1-36.29217907 30.23857289l-36.57202948-3.01943859z" fill="#475A92" p-id="26502"></path></svg>