<?xml version="1.0" standalone="no"?><!DOCTYPE svg PUBLIC "-//W3C//DTD SVG 1.1//EN" "http://www.w3.org/Graphics/SVG/1.1/DTD/svg11.dtd"><svg t="1760902821405" class="icon" viewBox="0 0 1024 1024" version="1.1" xmlns="http://www.w3.org/2000/svg" p-id="4583" xmlns:xlink="http://www.w3.org/1999/xlink" width="200" height="200"><path d="M192.456 671.67h-79.988V831.68c0 43.99 35.998 79.988 79.988 79.988h160.012v-79.988H192.456V671.67z m0-479.178h160.012v-80.024H192.456c-43.99 0-79.988 35.998-79.988 79.988v160.012h79.988V192.456v0.036z m639.225-80.024H671.67v79.988h160.012v160.012h79.988V192.456c0-43.99-35.998-79.988-79.988-79.988zM911.67 671.67v160.012c0 43.99-35.998 79.988-79.988 79.988H671.67v-79.988h160.012V671.67h79.988zM512 288c123.71 0 224 100.29 224 224S635.71 736 512 736 288 635.71 288 512s100.29-224 224-224z m0 84c-77.375 0-140 62.625-140 140s62.625 140 140 140 140-62.625 140-140-62.625-140-140-140z" fill="#ffffff" p-id="4584"></path></svg>