<svg t="1760640449426" class="icon" viewBox="0 0 1024 1024" version="1.1" xmlns="http://www.w3.org/2000/svg" p-id="23780" width="200" height="200">
  <!-- 手掌外轮廓 - 只保留外侧虚线 -->
  <path
    d="M662.192535 85.055436c-5.499475 31.509216-45.527252 300.652925-45.527252 300.652925-0.304697 3.780827-0.686065 7.600488-1.602147 11.266805-1.452786 8.555403-6.11086 14.705097-13.825858 18.409253-5.958512-5.041435-7.33363-11.191129-7.33363-18.562597 0.534713-48.656865-5.041435-332.276651-4.88809-340.488524 2.062179-68.441235-85.094001-77.340169-93.726077-11.114456 0 0-4.353378 305.542011-3.284948 347.477627 0.688057 20.243407-18.179236 11.420149-16.192734-4.08652l-45.526257-259.977916c-4.277702-56.565037-85.016334-62.025678-81.961401 6.950269l26.428947 271.474738c12.144053 85.130844-22.227918 116.182019-23.527359 117.021428-0.993749 0.573547-2.215523 0.954915-3.437296 1.261603-10.770926-1.261603-17.873544-7.525808-21.693205-18.600434l-0.917077-0.496875-0.840406-2.101012-0.687061-0.458041c-9.394813-22.303594-18.790621-44.684856-27.956413-67.295138-12.070368-29.255855-21.00714-66.952603-45.297236-89.066011-18.637277-14.398409-48.275496-25.359522-70.503414-15.506668-3.36162 1.489628-9.090116 5.270455-11.917024 8.555403-3.283953 3.895337-5.422803 18.295738-7.561654 19.135148-2.444543 1.030592 16.499422 39.032036 17.721196 42.087964 13.596838 33.075516 13.367818 65.883178 19.785366 99.416734 1.831167 9.470489 3.895337 18.561601 7.63733 27.460535 6.568901 15.391163 12.297397 35.443387 21.159488 50.376509l13.901535 41.13504 0.764729 0.533717 0.993749 4.851248 0.45804 0.725895c1.986503 7.675169 4.353378 15.08547 7.332634 22.189084l1.069426 1.412956-0.304697 1.412956 0.840405 0.650219c1.29745 7.790675 2.902584 15.314491 4.431046 22.992646 10.846602 49.114906 30.476633 94.793511 58.58639 136.614616 25.971902 47.9708 101.516751 73.86603 99.683593 135.355005l-0.153344 76.957805 288.964921 0.306688v-72.9848c10.541906-27.539198 17.952208-40.028773 33.762577-59.886828 60.650561-76.196063 65.997688-205.592556 70.122046-294.58289 4.888091-72.222062 47.741779-339.571447 55.610121-384.868683 10.465234-59.046423-62.481728-78.103902-78.372752-13.366822l-53.314939 244.205386-4.814406 7.2938-0.916082 0.153344c-3.131604 3.513969-6.262213 3.513969-9.013444 0.22902-6.034188-7.142447-7.254966-18.524758-7.103613-25.589538 0 0 26.506615-277.27891 31.318034-324.065774 6.33988-63.360967-68.747923-70.311236-78.371757-15.466839"
    fill="none"
    stroke="#00BC7D"
    stroke-width="4"
    stroke-dasharray="15,8"
    stroke-linejoin="round"
    stroke-linecap="round"
    p-id="23781"></path>
</svg>
