<?xml version="1.0" standalone="no"?><!DOCTYPE svg PUBLIC "-//W3C//DTD SVG 1.1//EN" "http://www.w3.org/Graphics/SVG/1.1/DTD/svg11.dtd"><svg t="1760903225465" class="icon" viewBox="0 0 1024 1024" version="1.1" xmlns="http://www.w3.org/2000/svg" p-id="7056" xmlns:xlink="http://www.w3.org/1999/xlink" width="200" height="200"><path d="M504 144v48c174.4 0 318.4 142.4 318.4 316.8 0 176-140.8 318.4-316.8 318.4h-1.6c-174.4 0-318.4-142.4-318.4-316.8 0-176 142.4-318.4 318.4-318.4V144m0 0C302.4 145.6 137.6 310.4 137.6 512s164.8 364.8 366.4 364.8h1.6c201.6 0 364.8-164.8 364.8-366.4C870.4 308.8 705.6 144 504 144z" fill="#ffffff" p-id="7057"></path><path d="M918.4 486.4h59.2c14.4 0 25.6 11.2 25.6 25.6 0 14.4-11.2 25.6-25.6 25.6h-59.2c-14.4 0-25.6-11.2-25.6-25.6-1.6-12.8 8-24 20.8-25.6h4.8z m-41.6 209.6l51.2 28.8c12.8 6.4 16 22.4 9.6 35.2-6.4 12.8-22.4 16-35.2 9.6l-51.2-28.8c-12.8-6.4-16-22.4-9.6-35.2 6.4-12.8 20.8-17.6 35.2-9.6-1.6-1.6-1.6 0 0 0z m-144 160l28.8 51.2c6.4 12.8 3.2 28.8-9.6 35.2-12.8 6.4-28.8 3.2-35.2-9.6L688 881.6c-6.4-12.8-3.2-27.2 9.6-35.2 12.8-6.4 28.8-1.6 35.2 9.6zM528 924.8v59.2c0 14.4-11.2 25.6-25.6 25.6-14.4 0-25.6-11.2-25.6-25.6v-59.2c0-14.4 11.2-25.6 25.6-25.6 12.8-1.6 24 8 25.6 20.8v4.8z m-208-43.2l-28.8 51.2c-6.4 12.8-22.4 16-35.2 9.6-12.8-6.4-16-22.4-9.6-35.2l28.8-51.2c6.4-12.8 22.4-16 35.2-9.6 11.2 6.4 16 20.8 9.6 35.2 0-1.6 0-1.6 0 0z m-160-142.4L108.8 768c-12.8 6.4-28.8 3.2-35.2-9.6-6.4-12.8-3.2-28.8 9.6-35.2l51.2-28.8c12.8-6.4 27.2-3.2 35.2 9.6 4.8 11.2 1.6 27.2-9.6 35.2zM91.2 532.8H32c-14.4 0-25.6-11.2-25.6-25.6 0-14.4 11.2-25.6 25.6-25.6h59.2c14.4 0 25.6 11.2 25.6 25.6 1.6 12.8-8 24-20.8 25.6h-4.8z m43.2-208l-51.2-28.8c-12.8-6.4-16-22.4-9.6-35.2 6.4-12.8 22.4-16 35.2-9.6l51.2 28.8c12.8 6.4 16 22.4 9.6 35.2-6.4 11.2-22.4 16-35.2 9.6z m142.4-160l-28.8-51.2c-6.4-12.8-3.2-28.8 9.6-35.2 12.8-6.4 28.8-3.2 35.2 9.6l28.8 51.2c6.4 12.8 3.2 27.2-9.6 35.2-12.8 4.8-27.2 1.6-35.2-9.6zM481.6 96V36.8c0-14.4 11.2-25.6 25.6-25.6s25.6 11.2 25.6 25.6V96c0 14.4-11.2 25.6-25.6 25.6-12.8 1.6-24-8-25.6-20.8V96z m209.6 43.2L720 88c8-11.2 24-16 35.2-8 11.2 6.4 14.4 20.8 9.6 33.6L736 164.8c-6.4 12.8-22.4 16-35.2 9.6-12.8-6.4-17.6-22.4-9.6-35.2-1.6 0 0 0 0 0z m160 142.4l51.2-28.8c12.8-6.4 28.8-3.2 35.2 9.6 6.4 12.8 3.2 28.8-9.6 35.2l-51.2 28.8c-12.8 6.4-27.2 3.2-35.2-9.6-6.4-12.8-1.6-27.2 9.6-35.2z m-366.4-6.4c-129.6 11.2-225.6 124.8-214.4 254.4 9.6 115.2 100.8 204.8 214.4 214.4V275.2z" fill="#ffffff" p-id="7058"></path></svg>